<?xml version="1.0" standalone="no"?>
<!DOCTYPE svg PUBLIC "-//W3C//DTD SVG 20010904//EN"
 "http://www.w3.org/TR/2001/REC-SVG-20010904/DTD/svg10.dtd">
<svg version="1.0" xmlns="http://www.w3.org/2000/svg"
 width="1536.000000pt" height="1024.000000pt" viewBox="0 0 1536.000000 1024.000000"
 preserveAspectRatio="xMidYMid meet">

<g transform="translate(0.000000,1024.000000) scale(0.100000,-0.100000)"
fill="#FFFFFF" stroke="none">
<path d="M8960 8893 c-41 -2 -181 -14 -310 -28 -129 -14 -316 -29 -415 -35
-211 -11 -216 -12 -755 -50 -228 -17 -460 -35 -515 -40 -100 -9 -586 -37 -745
-42 l-85 -3 -87 -60 c-136 -93 -519 -368 -668 -480 -74 -56 -175 -128 -225
-160 -85 -54 -185 -137 -194 -160 -2 -5 -60 -163 -128 -350 -69 -187 -153
-408 -188 -490 -86 -202 -155 -404 -155 -451 0 -23 61 -222 154 -499 84 -253
168 -513 187 -577 31 -113 32 -121 22 -190 -12 -73 -41 -216 -88 -423 -29
-126 -30 -135 -12 -135 16 0 101 -89 156 -163 24 -33 68 -87 100 -121 49 -55
156 -204 256 -358 16 -26 34 -47 38 -47 5 -1 39 -18 75 -40 37 -21 115 -58
175 -82 l107 -43 0 -133 c0 -72 -6 -183 -14 -245 -8 -62 -22 -198 -32 -303
l-17 -190 -61 -64 c-58 -60 -305 -277 -466 -408 -41 -34 -118 -101 -170 -151
-94 -88 -94 -89 -78 -113 17 -28 258 -159 728 -397 162 -82 318 -161 345 -176
28 -14 227 -114 444 -221 l394 -196 1112 3 c1048 3 1112 4 1138 21 15 10 128
95 250 189 122 94 294 227 382 295 502 387 590 459 593 485 2 19 -3 30 -17 37
-37 20 -605 229 -696 256 -49 15 -171 53 -270 85 -165 53 -221 70 -342 100
l-43 11 0 237 0 237 237 34 c130 18 277 42 326 52 49 10 132 26 185 34 154 25
158 27 177 93 10 31 35 138 56 237 22 99 46 200 54 225 30 94 29 108 -15 235
l-40 120 26 111 c25 106 25 114 12 175 -14 64 -14 64 16 128 16 36 41 109 55
163 l26 99 80 36 c69 31 95 50 193 147 62 61 118 119 123 129 8 14 -5 52 -60
170 -38 84 -86 193 -105 243 -19 50 -94 237 -166 415 -73 178 -136 336 -141
352 -6 20 1 53 27 129 19 56 34 119 34 139 0 44 -113 393 -158 489 -24 52 -91
281 -94 325 -2 20 196 465 247 557 32 56 25 66 -146 229 -88 85 -195 186 -237
224 -43 39 -126 117 -187 176 -60 58 -136 128 -168 157 -65 58 -40 53 -237 45z
m182 -319 c62 -52 165 -148 228 -213 63 -64 154 -154 203 -199 59 -56 87 -90
87 -105 0 -33 -108 -279 -174 -394 -69 -123 -72 -154 -21 -274 19 -45 42 -107
51 -138 8 -31 42 -128 73 -216 32 -88 70 -203 85 -257 l27 -96 -40 -81 c-23
-44 -41 -93 -41 -109 0 -41 25 -119 82 -257 27 -66 83 -206 124 -312 40 -105
113 -285 162 -401 l88 -209 -44 -49 c-24 -27 -51 -61 -59 -76 -13 -21 -38 -33
-128 -62 -62 -20 -128 -36 -148 -36 -42 0 -58 -31 -26 -54 15 -10 20 -30 25
-104 l7 -92 -49 -71 c-86 -125 -82 -107 -45 -185 29 -62 31 -74 25 -130 -6
-62 -53 -164 -74 -164 -15 0 -12 -47 5 -63 28 -29 74 -133 85 -197 20 -111 7
-175 -73 -367 l-42 -102 -65 -6 c-36 -3 -148 -19 -250 -35 -175 -27 -225 -33
-480 -60 -58 -6 -115 -13 -128 -16 l-23 -5 6 -257 c3 -141 7 -329 9 -417 l2
-160 49 -27 c28 -14 115 -45 195 -68 170 -49 921 -290 933 -300 4 -3 -30 -33
-75 -65 -46 -32 -143 -108 -216 -167 -117 -96 -223 -176 -550 -416 l-85 -62
-1032 0 -1032 0 -104 55 c-57 30 -185 94 -284 142 -210 101 -988 493 -1123
565 l-93 50 45 39 c546 481 593 524 600 560 3 17 6 57 6 89 0 32 11 165 25
296 27 260 30 362 15 529 -12 129 -27 210 -46 247 -11 21 -23 28 -61 33 -181
26 -261 58 -311 126 -18 24 -59 76 -91 114 -32 39 -124 157 -204 263 -107 139
-147 200 -147 220 0 44 58 441 75 514 15 64 14 70 -4 120 -112 301 -168 464
-196 573 -19 72 -64 214 -100 317 l-67 187 32 98 c18 54 78 211 132 348 55
138 136 347 180 465 43 118 85 229 91 247 10 25 39 49 131 108 66 42 167 113
225 158 58 46 158 118 221 162 63 43 158 110 210 148 52 39 138 98 192 132
l97 62 153 7 c84 3 221 11 303 16 83 5 238 14 345 20 107 6 269 17 360 26 293
26 474 41 505 42 183 5 624 36 765 53 137 17 313 36 337 38 13 1 62 -33 135
-95z"/>
<path d="M8665 8400 c-22 -4 -168 -11 -325 -14 -157 -4 -301 -9 -321 -12 -37
-5 -65 -35 -132 -142 -15 -24 -85 -118 -155 -207 -70 -89 -136 -175 -148 -191
l-21 -28 -260 -4 -260 -4 -7 -67 c-8 -89 -8 -151 2 -152 4 0 146 -2 316 -3
l308 -3 144 173 c80 96 180 223 224 283 l80 108 118 7 c64 3 201 7 304 8 l186
3 80 -101 c44 -55 105 -136 135 -178 l55 -79 -16 -33 c-8 -19 -20 -34 -25 -34
-5 0 -55 18 -111 41 -115 47 -52 45 -511 10 -183 -14 -250 -23 -281 -37 -32
-15 -68 -51 -151 -154 -60 -74 -126 -160 -146 -190 -20 -30 -42 -63 -50 -73
-8 -10 -79 -40 -158 -67 -79 -26 -200 -72 -269 -100 -169 -70 -202 -72 -400
-27 -85 20 -180 39 -210 43 -30 3 -84 17 -119 30 -43 16 -84 24 -128 24 l-64
0 -151 -147 c-82 -82 -226 -229 -318 -328 l-169 -180 -138 -47 c-76 -26 -157
-52 -180 -58 -25 -6 -52 -22 -67 -40 -26 -31 -96 -230 -96 -273 0 -16 19 -39
62 -75 35 -29 68 -52 75 -52 19 0 49 45 100 150 38 79 52 99 69 100 12 0 64
13 115 29 52 15 126 36 164 45 65 16 73 20 98 60 62 98 475 529 538 562 27 14
38 13 112 -2 45 -9 152 -36 237 -59 85 -24 194 -51 242 -60 86 -15 88 -15 130
6 58 30 244 99 473 176 l190 65 39 56 c59 85 261 345 282 363 19 16 41 18 446
45 l96 6 150 -76 c83 -42 164 -76 179 -76 27 0 33 8 83 112 30 61 79 149 108
196 28 46 52 94 52 106 0 12 -29 54 -66 96 -102 117 -225 276 -290 375 -32 50
-63 93 -69 97 -13 10 -127 8 -180 -2z"/>
<path d="M6685 8000 c-60 -4 -205 -8 -321 -9 -187 -1 -213 -3 -226 -18 -9 -10
-51 -81 -96 -158 -44 -77 -108 -189 -142 -250 -35 -60 -65 -112 -66 -113 -3
-5 -317 -125 -380 -146 -88 -29 -113 -54 -144 -148 -16 -46 -42 -114 -59 -151
-17 -38 -31 -75 -31 -82 0 -15 145 -140 163 -140 7 0 20 16 29 35 9 19 41 84
70 144 l53 108 70 35 c38 20 108 50 155 68 47 19 118 49 159 69 65 31 79 43
117 98 64 96 244 396 244 408 0 7 83 10 253 10 138 0 258 4 265 9 17 10 29 64
38 164 7 77 6 77 -17 75 -13 -1 -73 -5 -134 -8z"/>
<path d="M9115 7260 c-123 -23 -181 -29 -320 -30 -93 -1 -227 -5 -297 -9 -144
-7 -154 -12 -223 -98 -132 -166 -465 -669 -656 -993 -175 -296 -198 -326 -284
-373 -48 -26 -79 -36 -100 -33 -16 2 -37 -1 -46 -7 -11 -7 -46 0 -128 28 -69
23 -116 34 -122 28 -6 -6 -5 -30 1 -63 5 -29 10 -71 9 -94 -1 -23 4 -61 10
-86 6 -25 11 -69 11 -97 0 -46 -3 -55 -26 -70 l-27 -17 -86 90 c-91 93 -181
229 -199 299 -6 22 -16 66 -22 98 l-11 57 -57 0 c-31 0 -79 -6 -107 -13 -46
-12 -50 -16 -53 -46 -6 -56 35 -202 93 -331 31 -68 62 -131 68 -139 7 -8 57
-52 112 -99 55 -47 132 -116 171 -154 40 -37 77 -68 84 -68 6 0 32 14 56 31
47 32 153 79 179 79 19 0 53 -115 57 -193 l3 -59 -85 -47 c-175 -97 -261 -111
-327 -53 -112 98 -141 122 -151 122 -6 0 -16 -19 -22 -42 -6 -24 -36 -130 -66
-237 l-55 -194 -132 -166 c-190 -238 -195 -244 -203 -277 -3 -16 -12 -38 -19
-50 -10 -15 -15 -99 -18 -320 -5 -268 -13 -402 -47 -739 -5 -55 -10 -107 -10
-115 0 -8 -101 -107 -225 -220 -176 -161 -222 -208 -212 -217 11 -12 358 -189
942 -482 l270 -136 957 -3 958 -2 70 35 c38 19 70 41 70 48 0 6 -56 34 -125
61 -69 27 -158 68 -199 91 -41 24 -95 51 -120 60 -26 10 -49 22 -52 27 -3 5
-6 176 -6 381 1 350 0 373 -18 392 -10 11 -37 51 -59 89 -22 38 -152 202 -288
364 -136 162 -347 412 -467 556 -121 144 -242 287 -269 318 -48 56 -49 58 -37
90 16 40 60 108 71 108 4 0 112 -60 241 -133 380 -217 494 -278 550 -293 29
-8 141 -25 248 -39 314 -41 770 -104 829 -115 93 -17 139 -13 155 13 22 34 64
166 74 232 15 93 -21 151 -120 195 l-48 21 0 58 0 57 83 33 c45 19 88 38 95
44 16 13 15 82 -2 116 -21 40 -53 50 -179 56 -61 3 -127 8 -145 11 l-33 5 3
61 c3 60 4 62 41 81 24 12 72 23 126 28 84 8 180 35 213 62 10 7 18 36 22 74
l6 62 -63 62 c-41 40 -87 73 -135 97 -41 19 -76 41 -79 49 -3 7 6 48 19 91
l24 77 80 -3 c43 -1 153 -9 244 -18 190 -18 250 -14 250 18 0 42 -397 1007
-417 1015 -8 3 -22 -2 -32 -11 -10 -9 -22 -16 -28 -16 -6 0 -18 -11 -27 -25
-14 -22 -121 -102 -154 -115 -9 -4 -14 -37 -17 -115 -2 -61 -6 -118 -10 -127
-4 -9 -20 -20 -36 -23 -27 -6 -36 0 -100 69 -53 57 -78 76 -97 76 -15 0 -94
18 -176 38 -148 38 -148 38 -172 78 -17 28 -24 54 -24 92 l0 53 199 -7 c193
-7 201 -6 258 16 58 23 133 87 133 113 0 11 -26 16 -107 20 -151 10 -337 9
-349 -2 -5 -5 -79 -46 -164 -91 -85 -46 -167 -91 -182 -101 -14 -11 -35 -19
-45 -19 -30 0 -136 39 -145 53 -15 23 -8 64 15 84 38 34 181 120 355 215 l167
90 295 -6 c162 -3 337 -9 388 -12 l92 -7 0 31 c0 57 -106 541 -125 572 -9 14
-41 11 -210 -20z"/>
<path d="M7453 6672 c-58 -52 -314 -179 -386 -193 -66 -12 -161 1 -402 52 -79
17 -153 27 -170 24 -16 -3 -66 -36 -111 -73 -44 -37 -144 -119 -220 -184
l-140 -116 -69 -174 c-38 -95 -101 -241 -141 -325 -70 -147 -74 -153 -126
-186 -91 -58 -272 -156 -301 -163 -32 -7 -117 -98 -117 -124 0 -18 132 -140
151 -140 5 0 67 38 137 84 105 69 190 118 351 205 8 4 37 59 63 122 66 153
173 389 214 470 27 54 56 89 156 182 140 131 195 177 214 177 7 0 43 -6 81
-14 37 -8 166 -29 286 -46 l218 -32 22 20 c25 22 255 142 274 142 20 0 30 31
42 130 7 52 21 114 31 138 11 25 20 48 20 53 0 20 -38 6 -77 -29z"/>
<path d="M5969 5009 c-98 -73 -146 -102 -190 -112 -17 -4 -32 -19 -42 -39 -20
-45 -59 -259 -61 -338 l-1 -65 42 -14 c23 -8 45 -13 48 -9 3 3 9 29 14 57 6
37 17 62 38 84 16 18 39 46 50 62 12 17 61 57 110 89 l90 59 12 106 c7 58 15
125 18 149 5 37 3 42 -14 42 -11 0 -62 -32 -114 -71z"/>
</g>
</svg>
