<?xml version="1.0" standalone="no"?>
<!DOCTYPE svg PUBLIC "-//W3C//DTD SVG 20010904//EN"
 "http://www.w3.org/TR/2001/REC-SVG-20010904/DTD/svg10.dtd">
<svg version="1.0" xmlns="http://www.w3.org/2000/svg"
 width="1536.000000pt" height="1024.000000pt" viewBox="0 0 1536.000000 1024.000000"
 preserveAspectRatio="xMidYMid meet">

<g transform="translate(0.000000,1024.000000) scale(0.100000,-0.100000)"
fill="#000000" stroke="none">
<path d="M0 5120 l0 -5120 7680 0 7680 0 0 5120 0 5120 -7680 0 -7680 0 0
-5120z m9197 3728 c32 -29 108 -99 168 -157 61 -59 144 -137 187 -176 42 -38
149 -139 237 -224 171 -163 178 -173 146 -229 -51 -92 -249 -537 -247 -557 3
-44 70 -273 94 -325 45 -96 158 -445 158 -489 0 -20 -15 -83 -34 -139 -26 -76
-33 -109 -27 -129 5 -16 68 -174 141 -352 72 -178 147 -365 166 -415 19 -50
67 -159 105 -243 55 -118 68 -156 60 -170 -5 -10 -61 -68 -123 -129 -98 -97
-124 -116 -193 -147 l-80 -36 -26 -99 c-14 -54 -39 -127 -55 -163 -30 -64 -30
-64 -16 -128 13 -61 13 -69 -12 -175 l-26 -111 40 -120 c44 -127 45 -141 15
-235 -8 -25 -32 -126 -54 -225 -21 -99 -46 -206 -56 -237 -19 -66 -23 -68
-177 -93 -53 -8 -136 -24 -185 -34 -49 -10 -196 -34 -326 -52 l-237 -34 0
-237 0 -237 43 -11 c121 -30 177 -47 342 -100 99 -32 221 -70 270 -85 91 -27
659 -236 696 -256 14 -7 19 -18 17 -37 -3 -26 -91 -98 -593 -485 -88 -68 -260
-201 -382 -295 -122 -94 -235 -179 -250 -189 -26 -17 -90 -18 -1138 -21
l-1112 -3 -394 196 c-217 107 -416 207 -444 221 -27 15 -183 94 -345 176 -470
238 -711 369 -728 397 -16 24 -16 25 78 113 52 50 129 117 170 151 161 131
408 348 466 408 l61 64 17 190 c10 105 24 241 32 303 8 62 14 173 14 245 l0
133 -107 43 c-60 24 -138 61 -175 82 -36 22 -70 39 -75 40 -4 0 -22 21 -38 47
-100 154 -207 303 -256 358 -32 34 -76 88 -100 121 -55 74 -140 163 -156 163
-18 0 -17 9 12 135 47 207 76 350 88 423 10 69 9 77 -22 190 -19 64 -103 324
-187 577 -93 277 -154 476 -154 499 0 47 69 249 155 451 35 82 119 303 188
490 68 187 126 345 128 350 9 23 109 106 194 160 50 32 151 104 225 160 149
112 532 387 668 480 l87 60 85 3 c159 5 645 33 745 42 55 5 287 23 515 40 539
38 544 39 755 50 99 6 286 21 415 35 129 14 269 26 310 28 197 8 172 13 237
-45z"/>
<path d="M8870 8654 c-63 -7 -153 -17 -200 -23 -141 -17 -582 -48 -765 -53
-31 -1 -212 -16 -505 -42 -91 -9 -253 -20 -360 -26 -107 -6 -262 -15 -345 -20
-82 -5 -219 -13 -303 -16 l-153 -7 -97 -62 c-54 -34 -140 -93 -192 -132 -52
-38 -147 -105 -210 -148 -63 -44 -163 -116 -221 -162 -58 -45 -159 -116 -225
-158 -92 -59 -121 -83 -131 -108 -6 -18 -48 -129 -91 -247 -44 -118 -125 -327
-180 -465 -54 -137 -114 -294 -132 -348 l-32 -98 67 -187 c36 -103 81 -245
100 -317 28 -109 84 -272 196 -573 18 -50 19 -56 4 -120 -17 -73 -75 -470 -75
-514 0 -20 40 -81 147 -220 80 -106 172 -224 204 -263 32 -38 73 -90 91 -114
50 -68 130 -100 311 -126 38 -5 50 -12 61 -33 19 -37 34 -118 46 -247 15 -167
12 -269 -15 -529 -14 -131 -25 -264 -25 -296 0 -32 -3 -72 -6 -89 -7 -36 -54
-79 -600 -560 l-45 -39 93 -50 c135 -72 913 -464 1123 -565 99 -48 227 -112
284 -142 l104 -55 1032 0 1032 0 85 62 c327 240 433 320 550 416 73 59 170
135 216 167 45 32 79 62 75 65 -12 10 -763 251 -933 300 -80 23 -167 54 -195
68 l-49 27 -2 160 c-2 88 -6 276 -9 417 l-6 257 23 5 c13 3 70 10 128 16 255
27 305 33 480 60 102 16 214 32 250 35 l65 6 42 102 c80 192 93 256 73 367
-11 64 -57 168 -85 197 -17 16 -20 63 -5 63 21 0 68 102 74 164 6 56 4 68 -25
130 -37 78 -41 60 45 185 l49 71 -7 92 c-5 74 -10 94 -25 104 -32 23 -16 54
26 54 20 0 86 16 148 36 90 29 115 41 128 62 8 15 35 49 59 76 l44 49 -88 209
c-49 116 -122 296 -162 401 -41 106 -97 246 -124 312 -57 138 -82 216 -82 257
0 16 18 65 41 109 l40 81 -27 96 c-15 54 -53 169 -85 257 -31 88 -65 185 -73
216 -9 31 -32 93 -51 138 -51 120 -48 151 21 274 66 115 174 361 174 394 0 15
-28 49 -87 105 -49 45 -140 135 -203 199 -148 151 -334 309 -363 308 -12 -1
-74 -7 -137 -15z m-25 -252 c6 -4 37 -47 69 -97 65 -99 188 -258 290 -375 37
-42 66 -84 66 -96 0 -12 -24 -60 -52 -106 -29 -47 -78 -135 -108 -196 -50
-104 -56 -112 -83 -112 -15 0 -96 34 -179 76 l-150 76 -96 -6 c-405 -27 -427
-29 -446 -45 -21 -18 -223 -278 -282 -363 l-39 -56 -190 -65 c-229 -77 -415
-146 -473 -176 -42 -21 -44 -21 -130 -6 -48 9 -157 36 -242 60 -85 23 -192 50
-237 59 -74 15 -85 16 -112 2 -63 -33 -476 -464 -538 -562 -25 -40 -33 -44
-98 -60 -38 -9 -112 -30 -164 -45 -51 -16 -103 -29 -115 -29 -17 -1 -31 -21
-69 -100 -51 -105 -81 -150 -100 -150 -7 0 -40 23 -75 52 -43 36 -62 59 -62
75 0 43 70 242 96 273 15 18 42 34 67 40 23 6 104 32 180 58 l138 47 169 180
c92 99 236 246 318 328 l151 147 64 0 c44 0 85 -8 128 -24 35 -13 89 -27 119
-30 30 -4 125 -23 210 -43 198 -45 231 -43 400 27 69 28 190 74 269 100 79 27
150 57 158 67 8 10 30 43 50 73 20 30 86 116 146 190 83 103 119 139 151 154
31 14 98 23 281 37 459 35 396 37 511 -10 56 -23 106 -41 111 -41 5 0 17 15
25 34 l16 33 -55 79 c-30 42 -91 123 -135 178 l-80 101 -186 -3 c-103 -1 -240
-5 -304 -8 l-118 -7 -80 -108 c-44 -60 -144 -187 -224 -283 l-144 -173 -308 3
c-170 1 -312 3 -316 3 -10 1 -10 63 -2 152 l7 67 260 4 260 4 21 28 c12 16 78
102 148 191 70 89 140 183 155 207 67 107 95 137 132 142 20 3 164 8 321 12
157 3 303 10 325 14 53 10 167 12 180 2z m-2009 -469 c-9 -100 -21 -154 -38
-164 -7 -5 -127 -9 -265 -9 -170 0 -253 -3 -253 -10 0 -12 -180 -312 -244
-408 -38 -55 -52 -67 -117 -98 -41 -20 -112 -50 -159 -69 -47 -18 -117 -48
-155 -68 l-70 -35 -53 -108 c-29 -60 -61 -125 -70 -144 -9 -19 -22 -35 -29
-35 -18 0 -163 125 -163 140 0 7 14 44 31 82 17 37 43 105 59 151 31 94 56
119 144 148 63 21 377 141 380 146 1 1 31 53 66 113 34 61 98 173 142 250 45
77 87 148 96 158 13 15 39 17 226 18 177 1 292 6 455 17 23 2 24 2 17 -75z
m2489 -653 c19 -31 125 -515 125 -572 l0 -31 -92 7 c-51 3 -226 9 -388 12
l-295 6 -167 -90 c-174 -95 -317 -181 -355 -215 -23 -20 -30 -61 -15 -84 9
-14 115 -53 145 -53 10 0 31 8 45 19 15 10 97 55 182 101 85 45 159 86 164 91
12 11 198 12 349 2 81 -4 107 -9 107 -20 0 -26 -75 -90 -133 -113 -57 -22 -65
-23 -258 -16 l-199 7 0 -53 c0 -38 7 -64 24 -92 24 -40 24 -40 172 -78 82 -20
161 -38 176 -38 19 0 44 -19 97 -76 64 -69 73 -75 100 -69 16 3 32 14 36 23 4
9 8 66 10 127 3 78 8 111 17 115 33 13 140 93 154 115 9 14 21 25 27 25 6 0
18 7 28 16 10 9 24 14 32 11 20 -8 417 -973 417 -1015 0 -32 -60 -36 -250 -18
-91 9 -201 17 -244 18 l-80 3 -24 -77 c-13 -43 -22 -84 -19 -91 3 -8 38 -30
79 -49 48 -24 94 -57 135 -97 l63 -62 -6 -62 c-4 -38 -12 -67 -22 -74 -33 -27
-129 -54 -213 -62 -54 -5 -102 -16 -126 -28 -37 -19 -38 -21 -41 -81 l-3 -61
33 -5 c18 -3 84 -8 145 -11 126 -6 158 -16 179 -56 17 -34 18 -103 2 -116 -7
-6 -50 -25 -95 -44 l-83 -33 0 -57 0 -58 48 -21 c99 -44 135 -102 120 -195
-10 -66 -52 -198 -74 -232 -16 -26 -62 -30 -155 -13 -59 11 -515 74 -829 115
-107 14 -219 31 -248 39 -56 15 -170 76 -550 293 -129 73 -237 133 -241 133
-11 0 -55 -68 -71 -108 -12 -32 -11 -34 37 -90 27 -31 148 -174 269 -318 120
-144 331 -394 467 -556 136 -162 266 -326 288 -364 22 -38 49 -78 59 -89 18
-19 19 -42 18 -392 0 -205 3 -376 6 -381 3 -5 26 -17 52 -27 25 -9 79 -36 120
-60 41 -23 130 -64 199 -91 69 -27 125 -55 125 -61 0 -7 -32 -29 -70 -48 l-70
-35 -958 2 -957 3 -270 136 c-584 293 -931 470 -942 482 -10 9 36 56 212 217
124 113 225 212 225 220 0 8 5 60 10 115 34 337 42 471 47 739 3 221 8 305 18
320 7 12 16 34 19 50 8 33 13 39 203 277 l132 166 55 194 c30 107 60 213 66
237 6 23 16 42 22 42 10 0 39 -24 151 -122 66 -58 152 -44 327 53 l85 47 -3
59 c-4 78 -38 193 -57 193 -26 0 -132 -47 -179 -79 -24 -17 -50 -31 -56 -31
-7 0 -44 31 -84 68 -39 38 -116 107 -171 154 -55 47 -105 91 -112 99 -6 8 -37
71 -68 139 -58 129 -99 275 -93 331 3 30 7 34 53 46 28 7 76 13 107 13 l57 0
11 -57 c6 -32 16 -76 22 -98 18 -70 108 -206 199 -299 l86 -90 27 17 c23 15
26 24 26 70 0 28 -5 72 -11 97 -6 25 -11 63 -10 86 1 23 -4 65 -9 94 -6 33 -7
57 -1 63 6 6 53 -5 122 -28 82 -28 117 -35 128 -28 9 6 30 9 46 7 21 -3 52 7
100 33 86 47 109 77 284 373 191 324 524 827 656 993 69 86 79 91 223 98 70 4
204 8 297 9 139 1 197 7 320 30 169 31 201 34 210 20z m-1795 -579 c0 -5 -9
-28 -20 -53 -10 -24 -24 -86 -31 -138 -12 -99 -22 -130 -42 -130 -19 0 -249
-120 -274 -142 l-22 -20 -218 32 c-120 17 -249 38 -286 46 -38 8 -74 14 -81
14 -19 0 -74 -46 -214 -177 -100 -93 -129 -128 -156 -182 -41 -81 -148 -317
-214 -470 -26 -63 -55 -118 -63 -122 -161 -87 -246 -136 -351 -205 -70 -46
-132 -84 -137 -84 -19 0 -151 122 -151 140 0 26 85 117 117 124 29 7 210 105
301 163 52 33 56 39 126 186 40 84 103 230 141 325 l69 174 140 116 c76 65
176 147 220 184 45 37 95 70 111 73 17 3 91 -7 170 -24 241 -51 336 -64 402
-52 72 14 328 141 386 193 39 35 77 49 77 29z m-1433 -1663 c-3 -24 -11 -91
-18 -149 l-12 -106 -90 -59 c-49 -32 -98 -72 -110 -89 -11 -16 -34 -44 -50
-62 -21 -22 -32 -47 -38 -84 -5 -28 -11 -54 -14 -57 -3 -4 -25 1 -48 9 l-42
14 1 65 c2 79 41 293 61 338 10 20 25 35 42 39 44 10 92 39 190 112 52 39 103
71 114 71 17 0 19 -5 14 -42z"/>
</g>
</svg>
